<svg width="18" height="21" viewBox="0 0 18 21" fill="none" xmlns="http://www.w3.org/2000/svg">
<path opacity="0.24" d="M9 0C11.2543 0 13.4163 0.895533 15.0104 2.48959C16.6045 4.08365 17.5 6.24566 17.5 8.5C17.5 15 12 20.5 9 20.5C6 20.5 0.5 15 0.5 8.5C0.5 6.24566 1.39553 4.08365 2.98959 2.48959C4.58365 0.895533 6.74566 0 9 0ZM14.5 10C13.869 9.99998 13.245 10.1327 12.6686 10.3895C12.0922 10.6463 11.5762 11.0214 11.1542 11.4906C10.7322 11.9597 10.4136 12.5124 10.219 13.1127C10.0245 13.713 9.95839 14.3475 10.025 14.975C10.6924 15.0459 11.3672 14.9665 12 14.7428C12.6328 14.5191 13.2075 14.1567 13.6821 13.6821C14.1567 13.2075 14.5191 12.6328 14.7428 12C14.9665 11.3672 15.0459 10.6924 14.975 10.025C14.8172 10.0084 14.6587 10 14.5 10ZM3.5 10C3.34 10 3.181 10.008 3.025 10.025C2.95413 10.6924 3.03345 11.3672 3.25716 12C3.48086 12.6328 3.84328 13.2075 4.31786 13.6821C4.79245 14.1567 5.36719 14.5191 5.99998 14.7428C6.63277 14.9665 7.30758 15.0459 7.975 14.975C8.04161 14.3475 7.9755 13.713 7.78096 13.1127C7.58642 12.5124 7.26781 11.9597 6.8458 11.4906C6.42379 11.0214 5.90783 10.6463 5.33142 10.3895C4.75501 10.1327 4.13103 9.99998 3.5 10Z" fill="white"/>
</svg>
